<svg width="143" height="25" viewBox="0 0 143 25" fill="none" xmlns="http://www.w3.org/2000/svg">
<path d="M0.43608 24V0.727272H15.5724V4.26136H4.65199V10.5795H14.7884V14.1136H4.65199V20.4659H15.6634V24H0.43608ZM26.169 24.3068C24.7978 24.3068 23.5705 23.9545 22.4872 23.25C21.4039 22.5455 20.5478 21.5227 19.919 20.1818C19.2902 18.8409 18.9759 17.2121 18.9759 15.2955C18.9759 13.3561 19.294 11.7197 19.9304 10.3864C20.5743 9.04545 21.4418 8.03409 22.5327 7.35227C23.6236 6.66288 24.8395 6.31818 26.1804 6.31818C27.2031 6.31818 28.044 6.49242 28.7031 6.84091C29.3622 7.18182 29.8849 7.5947 30.2713 8.07955C30.6577 8.55682 30.9569 9.00758 31.169 9.43182H31.3395V0.727272H35.4645V24H31.419V21.25H31.169C30.9569 21.6742 30.6501 22.125 30.2486 22.6023C29.8471 23.072 29.3168 23.4735 28.6577 23.8068C27.9986 24.1402 27.169 24.3068 26.169 24.3068ZM27.3168 20.9318C28.188 20.9318 28.9304 20.697 29.544 20.2273C30.1577 19.75 30.6236 19.0871 30.9418 18.2386C31.2599 17.3902 31.419 16.4015 31.419 15.2727C31.419 14.1439 31.2599 13.1629 30.9418 12.3295C30.6312 11.4962 30.169 10.8485 29.5554 10.3864C28.9493 9.92424 28.2031 9.69318 27.3168 9.69318C26.4001 9.69318 25.6349 9.93182 25.0213 10.4091C24.4077 10.8864 23.9455 11.5455 23.6349 12.3864C23.3243 13.2273 23.169 14.1894 23.169 15.2727C23.169 16.3636 23.3243 17.3371 23.6349 18.1932C23.9531 19.0417 24.419 19.7121 25.0327 20.2045C25.6539 20.6894 26.4152 20.9318 27.3168 20.9318ZM50.973 16.6591V6.54545H55.0866V24H51.098V20.8977H50.9162C50.5223 21.875 49.8745 22.6742 48.973 23.2955C48.0791 23.9167 46.9768 24.2273 45.6662 24.2273C44.5223 24.2273 43.5109 23.9735 42.6321 23.4659C41.7609 22.9508 41.0791 22.2045 40.5866 21.2273C40.0942 20.2424 39.848 19.053 39.848 17.6591V6.54545H43.9616V17.0227C43.9616 18.1288 44.2647 19.0076 44.8707 19.6591C45.4768 20.3106 46.2723 20.6364 47.2571 20.6364C47.8632 20.6364 48.4503 20.4886 49.0185 20.1932C49.5866 19.8977 50.0526 19.4583 50.4162 18.875C50.7874 18.2841 50.973 17.5455 50.973 16.6591Z" fill="#151515"/>
<path d="M59.4986 24V0.727272H63.7145V20.4659H73.9645V24H59.4986ZM85.169 24.3409C83.419 24.3409 81.9077 23.9773 80.6349 23.25C79.3698 22.5152 78.3963 21.4773 77.7145 20.1364C77.0327 18.7879 76.6918 17.2008 76.6918 15.375C76.6918 13.5795 77.0327 12.0038 77.7145 10.6477C78.4039 9.28409 79.366 8.22348 80.6009 7.46591C81.8357 6.70076 83.2865 6.31818 84.9531 6.31818C86.0289 6.31818 87.044 6.49242 87.9986 6.84091C88.9607 7.18182 89.8092 7.71212 90.544 8.43182C91.2865 9.15151 91.8698 10.0682 92.294 11.1818C92.7183 12.2879 92.9304 13.6061 92.9304 15.1364V16.3977H78.6236V13.625H88.9872C88.9796 12.8371 88.8092 12.1364 88.4759 11.5227C88.1425 10.9015 87.6766 10.4129 87.0781 10.0568C86.4872 9.70076 85.7978 9.52273 85.0099 9.52273C84.169 9.52273 83.4304 9.72727 82.794 10.1364C82.1577 10.5379 81.6615 11.0682 81.3054 11.7273C80.9569 12.3788 80.7789 13.0947 80.7713 13.875V16.2955C80.7713 17.3106 80.9569 18.1818 81.3281 18.9091C81.6993 19.6288 82.2183 20.1818 82.8849 20.5682C83.5516 20.947 84.3319 21.1364 85.2259 21.1364C85.8243 21.1364 86.366 21.053 86.8509 20.8864C87.3357 20.7121 87.7562 20.4583 88.1122 20.125C88.4683 19.7917 88.7372 19.3788 88.919 18.8864L92.7599 19.3182C92.5175 20.3333 92.0554 21.2197 91.3736 21.9773C90.6993 22.7273 89.8357 23.3106 88.7827 23.7273C87.7296 24.1364 86.5251 24.3409 85.169 24.3409ZM101.433 24.3523C100.327 24.3523 99.331 24.1553 98.4446 23.7614C97.5658 23.3598 96.8688 22.7689 96.3537 21.9886C95.8461 21.2083 95.5923 20.2462 95.5923 19.1023C95.5923 18.1174 95.7741 17.303 96.1378 16.6591C96.5014 16.0152 96.9976 15.5 97.6264 15.1136C98.2552 14.7273 98.9635 14.4356 99.7514 14.2386C100.547 14.0341 101.369 13.8864 102.217 13.7955C103.24 13.6894 104.07 13.5947 104.706 13.5114C105.342 13.4205 105.804 13.2841 106.092 13.1023C106.388 12.9129 106.536 12.6212 106.536 12.2273V12.1591C106.536 11.303 106.282 10.6402 105.774 10.1705C105.267 9.70076 104.536 9.46591 103.581 9.46591C102.573 9.46591 101.774 9.68561 101.183 10.125C100.6 10.5644 100.206 11.0833 100.001 11.6818L96.1605 11.1364C96.4635 10.0758 96.9635 9.18939 97.6605 8.47727C98.3575 7.75757 99.2098 7.2197 100.217 6.86364C101.225 6.5 102.339 6.31818 103.558 6.31818C104.399 6.31818 105.236 6.41667 106.07 6.61364C106.903 6.81061 107.664 7.13636 108.354 7.59091C109.043 8.03788 109.596 8.64773 110.013 9.42045C110.437 10.1932 110.649 11.1591 110.649 12.3182V24H106.695V21.6023H106.558C106.308 22.0871 105.956 22.5417 105.501 22.9659C105.054 23.3826 104.49 23.7197 103.808 23.9773C103.134 24.2273 102.342 24.3523 101.433 24.3523ZM102.501 21.3295C103.327 21.3295 104.043 21.1667 104.649 20.8409C105.255 20.5076 105.721 20.0682 106.047 19.5227C106.38 18.9773 106.547 18.3826 106.547 17.7386V15.6818C106.418 15.7879 106.198 15.8864 105.888 15.9773C105.585 16.0682 105.244 16.1477 104.865 16.2159C104.486 16.2841 104.111 16.3447 103.74 16.3977C103.369 16.4508 103.047 16.4962 102.774 16.5341C102.161 16.6174 101.611 16.7538 101.126 16.9432C100.642 17.1326 100.259 17.3977 99.9787 17.7386C99.6984 18.072 99.5582 18.5038 99.5582 19.0341C99.5582 19.7917 99.8348 20.3636 100.388 20.75C100.941 21.1364 101.645 21.3295 102.501 21.3295ZM114.786 24V6.54545H118.774V9.45455H118.956C119.274 8.44697 119.82 7.67045 120.592 7.125C121.373 6.57197 122.263 6.29545 123.263 6.29545C123.49 6.29545 123.744 6.30682 124.024 6.32954C124.312 6.3447 124.551 6.37121 124.74 6.40909V10.1932C124.566 10.1326 124.289 10.0795 123.911 10.0341C123.539 9.98106 123.179 9.95455 122.831 9.95455C122.081 9.95455 121.407 10.1174 120.808 10.4432C120.217 10.7614 119.751 11.2045 119.411 11.7727C119.07 12.3409 118.899 12.9962 118.899 13.7386V24H114.786ZM131.587 13.7727V24H127.473V6.54545H131.405V9.51136H131.609C132.011 8.53409 132.651 7.75758 133.53 7.18182C134.416 6.60606 135.511 6.31818 136.814 6.31818C138.018 6.31818 139.068 6.57576 139.962 7.09091C140.863 7.60606 141.56 8.35227 142.053 9.32955C142.553 10.3068 142.799 11.4924 142.791 12.8864V24H138.678V13.5227C138.678 12.3561 138.375 11.4432 137.768 10.7841C137.17 10.125 136.34 9.79545 135.28 9.79545C134.56 9.79545 133.92 9.95455 133.359 10.2727C132.806 10.5833 132.371 11.0341 132.053 11.625C131.742 12.2159 131.587 12.9318 131.587 13.7727Z" fill="#FF432A"/>
</svg>
